<?xml version="1.0" encoding="utf-8"?>
<!-- Generator: Adobe Illustrator 25.0.1, SVG Export Plug-In . SVG Version: 6.00 Build 0)  -->
<svg version="1.1" id="Layer_1" xmlns="http://www.w3.org/2000/svg" xmlns:xlink="http://www.w3.org/1999/xlink" x="0px" y="0px"
	 viewBox="0 0 340 340" style="enable-background:new 0 0 340 340;" xml:space="preserve">
<style type="text/css">
	.st0{fill:#FFFFFF;}
</style>
<g>
	<path class="st0" d="M277.08,209.92c-2.77-2.13-3.81-4.28-3.8-7.66c0.12-22.48,0.06-44.96,0.06-67.44
		c0-21.63,0.04-43.26-0.04-64.89c-0.01-3.55-0.31-7.14-0.88-10.65c-2.72-16.76-18.5-28.72-36.31-27.66
		c-16.7,1-30.57,14.74-31.55,31.31c-0.17,2.89-0.24,5.79-0.24,8.68c-0.02,43.08-0.02,86.17,0,129.26c0,3.45-0.21,6.35-3.54,8.87
		c-21.13,16.01-29.84,37.31-25.96,63.55c5.33,36.1,42.25,61.18,77.7,52.59c26.78-6.5,44.29-23.24,49.81-50.28
		C307.77,248.9,298.85,226.62,277.08,209.92z M249.57,304.56c-23.13,5.74-46.91-8.23-52.83-31.04
		c-4.73-18.25,2.42-37.91,18.66-47.47c7.93-4.67,10.41-9.91,10.3-19.03c-0.54-45.66-0.26-91.33-0.2-137c0-2.69,0.22-5.5,1.04-8.03
		c2.03-6.28,7.73-9.49,14.47-8.61c5.8,0.76,10.55,6.09,10.63,12.55c0.17,12.61,0.06,25.22,0.06,37.83v37.32
		c0,24.03,0.14,48.06-0.11,72.08c-0.05,4.56,1.39,7.17,5.29,9.31c12.29,6.77,21.23,16.36,24.41,30.51
		C286.4,275.65,272.07,298.97,249.57,304.56z"/>
	<path class="st0" d="M150.09,80.15c-23.71-0.05-42.74,18.06-42.77,40.69c-0.03,23.03,18.79,41.11,42.75,41.06
		c23.55-0.05,42.18-17.99,42.19-40.63C192.28,98.29,173.73,80.2,150.09,80.15z M176.18,95.22c0,6.54-5.3,11.84-11.84,11.84h-9v34.26
		c0,6.54-5.3,11.84-11.84,11.84h-0.76c-0.82,0-1.48-0.67-1.48-1.48v-44.62h-19.91c-0.82,0-1.48-0.66-1.48-1.48v-0.76
		c0-6.54,5.3-11.84,11.84-11.84h42.99c0.82,0,1.48,0.66,1.48,1.48L176.18,95.22L176.18,95.22z"/>
	<path class="st0" d="M114.13,24.54c3.71-3.6,7.24-7.02,10.9-10.57c5.28,4.88,10.65,9.84,16.96,15.67c0.28-3.36,0.65-5.96,0.68-8.55
		c0.11-9.97-0.73-8.56,8.73-8.63c6.57-0.05,6.57-0.01,6.58,6.38c0,3.18,0,6.37,0,9.11c5.16-4.82,10.35-9.67,16.1-15.05
		c4.12,3.97,7.4,6.83,10.21,10.08c0.54,0.63-0.34,3.1-1.29,4.09c-7.36,7.7-14.99,15.16-22.28,22.91c-1.47,1.56-2.42,4.02-2.62,6.15
		c-0.4,4.29-0.31,8.65-0.07,12.96c0.22,3.96-1.45,5.39-5.41,4.76c-0.99-0.16-2.03-0.06-3.04-0.05c-6.87,0.02-6.87,0.03-6.88-6.82
		c-0.02-14.5-0.03-14.5-11.09-24.77c-1.46-1.36-2.85-2.78-4.25-4.19C122.89,33.48,118.43,28.92,114.13,24.54z"/>
	<path class="st0" d="M53.43,128.89c-4.32,0-8.65-0.08-12.96,0.03c-2.57,0.07-3.7-0.8-3.64-3.38c0.3-13.55-2-11,11.15-11.32
		c1.94-0.05,3.88-0.33,5.93-0.51c-5.75-5.41-11.13-10.48-17.79-16.74c4.48-3.63,7.78-6.11,10.83-8.85c2.31-2.07,3.54-0.51,5.03,0.87
		c7.61,7.07,15.36,14.01,22.8,21.24c3.11,3.03,6.41,4.4,10.81,4.07c3.75-0.28,7.54,0.01,11.31-0.07c3.01-0.06,4.73,0.6,3.98,4.1
		c-0.43,2-0.27,4.2,0.09,6.24c0.56,3.11-0.45,4.57-3.8,4.34c-0.58-0.04-1.18,0.08-1.74-0.02c-12.49-2.23-21.95,2.28-29.82,11.54
		c-4.01,4.71-9.21,8.47-13.74,12.79c-1.97,1.87-3.51,2.04-5.41-0.02c-2.4-2.6-6.4-4.78-6.98-7.66c-0.39-1.94,3.89-4.79,6.17-7.16
		c2.72-2.83,5.52-5.57,8.29-8.35C53.76,129.64,53.6,129.27,53.43,128.89z"/>
	<path class="st0" d="M76.46,61.48c-3.88-3.79-7.76-7.59-11.59-11.33c3.78-3.62,7.3-7,12.11-11.62c3.35,4.08,6.81,8.31,10.27,12.53
		c0.54-0.31,1.09-0.62,1.63-0.94c0-4.35,0.14-8.7-0.03-13.03c-0.33-8.41,0.08-8.71,9-8.95c3.93-0.1,5.92,0.83,5.94,4.96
		c0.04,9.46,0.47,18.93,0.47,28.39c0,3.58,0.89,6.34,3.77,8.83c4.5,3.89,8.6,8.2,12.95,12.42c-3.23,3.14-6.15,6.22-9.39,8.94
		c-0.69,0.57-3.02,0.3-3.83-0.4c-3.66-3.17-7.21-6.49-10.46-10.04c-2.75-3-5.93-4-9.97-3.97c-9.71,0.07-19.43-0.28-29.14-0.23
		c-4.04,0.02-5.15-1.61-5-5.29c0.37-9.36-1.59-9.78,9.93-9.19c4.23,0.22,8.48,0.03,12.72,0.03C76.05,62.21,76.25,61.85,76.46,61.48z
		"/>
	<path class="st0" d="M109.56,148.68c3.74,4.19,6.84,7.66,10.47,11.72c-3.1,2.99-6.85,7-11.04,10.52c-3.62,3.04-4.78,6.5-4.74,11.02
		c0.07,9.6-0.46,19.2-0.65,28.8c-0.05,2.69-1.23,3.66-4.01,3.56c-11.82-0.42-10.98,2.14-10.62-10.44c0.11-3.82,0.02-7.65,0.02-11.48
		c-0.41-0.22-0.83-0.44-1.24-0.66c-2.93,2.72-6.07,5.27-8.72,8.22c-2.56,2.86-4.32,2.67-6.92-0.02c-2.33-2.42-5.36-4.21-8.33-6.47
		c3.13-3.14,5.01-5.04,6.89-6.93c1.86-1.88,3.72-3.76,6.32-6.4c-2.55-0.34-4.03-0.71-5.52-0.7c-4.64,0.05-9.29,0.09-13.9,0.45
		c-2.75,0.21-4-0.53-4.28-3.26c-1.19-11.46-1.09-11.64,10.69-11.83c8.41-0.13,16.84,0.02,25.23-0.45c2.61-0.15,5.6-1.41,7.57-3.08
		C101.26,157.4,105.24,152.98,109.56,148.68z"/>
	<path class="st0" d="M168.62,223.86c-2.92-3.75-5.84-7.5-8.75-11.24c-0.63,0.32-1.26,0.65-1.9,0.97c0,3.51-0.15,7.02,0.04,10.52
		c0.18,3.32-0.96,4.85-4.66,4.79c-12.25-0.18-10.48,1.05-10.67-9.88c-0.03-1.86-0.36-3.72-0.67-6.78
		c-5.8,6.21-10.74,11.5-15.86,16.98c-4.5-4.83-7.83-8.41-11.52-12.37c5.03-5,10.32-11.39,16.77-16.39
		c9.21-7.15,12.99-15.6,11.44-26.85c-0.75-5.46-0.1-5.55,5.63-5.48c9.5,0.11,10.14,0.16,9.32,9.36c-0.8,9,1.57,16.04,9.24,21.32
		c0.46,0.32,0.79,0.82,1.24,1.17c3.83,3.05,5.83,6.42,3.97,11.55c-1.26,3.47-1.24,7.36-1.79,11.06
		C169.84,223,169.23,223.43,168.62,223.86z"/>
	<path class="st0" d="M189.91,92.62c-3.57-3.47-6.9-6.72-10.75-10.46c3.89-3.69,7.98-7.78,12.32-11.61
		c2.67-2.35,3.78-4.94,3.72-8.44c-0.18-11.09-0.07-22.18-0.07-33.68c4.66,0,8.24-0.17,11.78,0.09c1.4,0.1,3.8,1.09,3.85,1.81
		c0.12,1.56-0.53,3.61-1.65,4.74c-6.29,6.35-10.7,13.71-11.68,22.38c-0.87,7.72-0.59,15.57-0.7,23.36
		C196.66,87.44,196.1,88.53,189.91,92.62z"/>
	<path class="st0" d="M179.27,160.31c3.78-4.09,7.03-7.6,10.39-11.24c4.41,3.18,7.94,6.3,7.15,12.1c-0.45,3.29-0.01,6.68-0.18,10.01
		c-0.05,0.99-0.85,1.94-1.3,2.91c-0.96-0.43-2.12-0.65-2.84-1.32C187.9,168.55,183.41,164.23,179.27,160.31z"/>
	<path class="st0" d="M230.72,109.33c0-12.15-0.04-24.29,0.02-36.44c0.02-5.55,2.13-7.93,6.69-7.88c4.47,0.05,6.76,2.61,6.77,7.96
		c0.05,24.62-0.02,49.25,0.08,73.87c0.01,3.41-1.04,5-4.58,4.64c-1.48-0.15-3-0.15-4.49,0c-3.6,0.36-4.57-1.39-4.54-4.71
		C230.79,134.29,230.72,121.81,230.72,109.33z"/>
	<path class="st0" d="M274.35,261.69c-0.47,11.03-3.15,19.29-9.21,26.16c-1.46,1.65-3.6,3.14-5.69,3.66
		c-2.14,0.53-4.6-0.22-6.92-0.4c0.32-2.81,0.11-5.84,1.13-8.37c0.95-2.34,3.48-3.99,4.86-6.22c4.05-6.56,5.31-13.61,2.37-20.95
		c-1.46-3.64-0.98-6.9,2.3-8.7c3.83-2.09,6.66,0.98,7.99,3.87C273,254.71,273.68,259.21,274.35,261.69z"/>
</g>
</svg>
