<svg xmlns="http://www.w3.org/2000/svg" viewBox="0 0 1856.01 315.14"><defs><style>.cls-1{fill:#007dc6;}.cls-2{fill:#007336;}.cls-3{fill:#c4161c;}</style></defs><g id="Layer_2" data-name="Layer 2"><g id="Layer_1-2" data-name="Layer 1"><path class="cls-1" d="M237.22,122.39c0,22.48.06,45-.06,67.44a8.57,8.57,0,0,0,3.8,7.66c21.77,16.7,30.69,39,25.24,65.68-5.51,27-23,43.78-49.8,50.28C181,322.05,144,297,138.7,260.86c-3.88-26.24,4.83-47.54,26-63.54,3.33-2.53,3.54-5.43,3.54-8.88q0-64.64,0-129.26c0-2.89.07-5.79.24-8.68,1-16.57,14.85-30.31,31.55-31.31,17.81-1.06,33.59,10.9,36.31,27.67a67.71,67.71,0,0,1,.88,10.65C237.26,79.13,237.22,100.76,237.22,122.39Zm-21.64,6.26V91.34c0-12.61.1-25.23-.06-37.83-.08-6.47-4.83-11.8-10.63-12.56-6.74-.88-12.44,2.33-14.47,8.61a26.41,26.41,0,0,0-1,8c-.06,45.67-.34,91.34.2,137,.11,9.12-2.37,14.36-10.3,19-16.24,9.56-23.39,29.22-18.66,47.47,5.92,22.81,29.7,36.78,52.83,31,22.5-5.58,36.83-28.91,31.72-51.58C242,226.4,233.05,216.81,220.76,210c-3.9-2.14-5.34-4.75-5.3-9.31C215.72,176.71,215.58,152.68,215.58,128.65Z"/><path class="cls-2" d="M156.14,108.84c0,22.64-18.64,40.58-42.19,40.63-24,.05-42.78-18-42.75-41.06,0-22.63,19.06-40.74,42.77-40.69S156.16,85.86,156.14,108.84Z"/><path class="cls-1" d="M78,12.11,88.91,1.54l17,15.68c.28-3.37.65-6,.68-8.56.12-10-.72-8.55,8.73-8.63,6.57,0,6.57,0,6.57,6.38,0,3.19,0,6.37,0,9.12L138,.48c4.13,4,7.41,6.83,10.22,10.08.54.62-.35,3.1-1.29,4.09-7.36,7.7-15,15.16-22.28,22.91A11,11,0,0,0,122,43.71a87.59,87.59,0,0,0-.06,13c.22,4-1.45,5.39-5.41,4.76a19.22,19.22,0,0,0-3-.06c-6.87,0-6.87,0-6.88-6.82,0-14.5,0-14.5-11.09-24.77C94,28.43,92.64,27,91.24,25.59,86.77,21.05,82.32,16.49,78,12.11Z"/><path class="cls-1" d="M17.31,116.46c-4.32,0-8.64-.08-13,0-2.57.07-3.7-.8-3.64-3.38.29-13.54-2-11,11.15-11.32,1.94-.05,3.88-.33,5.93-.51L0,84.54c4.48-3.63,7.78-6.11,10.83-8.85,2.3-2.08,3.54-.51,5,.87,7.62,7.07,15.36,14,22.8,21.24a13,13,0,0,0,10.81,4.07c3.75-.28,7.54,0,11.31-.07,3-.07,4.73.59,4,4.09a16.59,16.59,0,0,0,.09,6.24c.56,3.11-.44,4.57-3.8,4.34a16.77,16.77,0,0,1-1.74,0c-12.49-2.22-21.95,2.28-29.82,11.54-4,4.71-9.2,8.47-13.74,12.79-2,1.87-3.51,2-5.41,0-2.4-2.6-6.39-4.79-7-7.66-.39-1.93,3.89-4.79,6.16-7.16,2.72-2.83,5.53-5.57,8.3-8.35Z"/><path class="cls-1" d="M40.34,49.05,28.76,37.72,40.87,26.1,51.15,38.63l1.63-.93c0-4.35.14-8.7,0-13-.33-8.41.08-8.72,9-9,3.93-.1,5.92.83,5.94,5,0,9.47.47,18.93.47,28.39,0,3.58.89,6.34,3.77,8.83,4.49,3.89,8.59,8.21,12.94,12.42-3.23,3.14-6.15,6.22-9.39,8.94-.69.57-3,.3-3.83-.4a125.67,125.67,0,0,1-10.46-10c-2.75-3-5.93-4-10-4-9.71.07-19.42-.28-29.13-.23-4,0-5.15-1.61-5-5.3.37-9.36-1.6-9.78,9.93-9.19,4.22.22,8.47,0,12.71,0Z"/><path class="cls-1" d="M73.44,136.25,83.91,148c-3.1,3-6.84,7-11,10.52-3.62,3-4.78,6.5-4.74,11,.06,9.6-.47,19.2-.66,28.8,0,2.69-1.23,3.67-4,3.57-11.82-.43-11,2.14-10.62-10.45.11-3.82,0-7.65,0-11.48l-1.24-.66c-2.93,2.73-6.08,5.27-8.73,8.22s-4.32,2.67-6.91,0c-2.33-2.42-5.36-4.21-8.33-6.47l6.88-6.93c1.87-1.88,3.72-3.77,6.32-6.4a45,45,0,0,0-5.51-.7c-4.64,0-9.29.09-13.91.45-2.75.21-4-.53-4.28-3.26-1.18-11.46-1.09-11.64,10.69-11.83,8.41-.13,16.84,0,25.23-.45a13.78,13.78,0,0,0,7.56-3.08C65.14,145,69.13,140.55,73.44,136.25Z"/><path class="cls-1" d="M132.5,211.43l-8.75-11.24-1.9,1c0,3.51-.14,7,.05,10.52.18,3.32-1,4.85-4.67,4.79-12.24-.18-10.48,1.05-10.67-9.88,0-1.86-.36-3.71-.67-6.78L90,216.78,78.51,204.42c5-5,10.32-11.39,16.77-16.4,9.21-7.15,13-15.59,11.44-26.85-.76-5.46-.1-5.54,5.63-5.48,9.5.12,10.14.17,9.32,9.36-.8,9,1.57,16,9.24,21.32.47.32.8.81,1.24,1.17,3.83,3.05,5.83,6.41,4,11.55-1.26,3.46-1.24,7.36-1.79,11.06Z"/><path class="cls-1" d="M153.8,80.19,143.05,69.74c3.9-3.69,8-7.79,12.33-11.61a10.16,10.16,0,0,0,3.72-8.44C158.92,38.61,159,27.51,159,16c4.66,0,8.24-.17,11.79.08,1.39.11,3.79,1.09,3.85,1.81A6.64,6.64,0,0,1,173,22.64C166.73,29,162.31,36.35,161.34,45c-.87,7.72-.59,15.56-.7,23.36C160.54,75,160,76.1,153.8,80.19Z"/><path class="cls-1" d="M143.16,147.88l10.39-11.24c4.41,3.18,7.93,6.3,7.15,12.1-.45,3.29,0,6.68-.19,10,0,1-.84,1.95-1.3,2.92a10.9,10.9,0,0,1-2.84-1.32C151.79,156.12,147.29,151.8,143.16,147.88Z"/><path class="cls-1" d="M194.6,96.91c0-12.15,0-24.29,0-36.44,0-5.55,2.13-7.93,6.69-7.88s6.76,2.61,6.77,8c0,24.62,0,49.24.08,73.87,0,3.4-1,5-4.58,4.64a21.64,21.64,0,0,0-4.48,0c-3.6.37-4.58-1.38-4.54-4.71C194.67,121.86,194.6,109.38,194.6,96.91Z"/><path class="cls-1" d="M238.24,249.26c-.47,11-3.15,19.29-9.21,26.16a12.09,12.09,0,0,1-5.7,3.66c-2.14.53-4.6-.22-6.92-.41.32-2.81.11-5.83,1.13-8.36,1-2.34,3.48-4,4.86-6.22,4-6.57,5.31-13.61,2.37-20.95-1.45-3.65-1-6.91,2.3-8.7,3.84-2.1,6.66,1,8,3.87C236.88,242.28,237.56,246.78,238.24,249.26Z"/><path class="cls-3" d="M95.59,80.55h43A1.48,1.48,0,0,1,140.06,82v.76a11.84,11.84,0,0,1-11.84,11.84h-43a1.48,1.48,0,0,1-1.48-1.48v-.76A11.84,11.84,0,0,1,95.59,80.55Z"/><path class="cls-3" d="M88.58,110.09h35.36a11.84,11.84,0,0,1,11.84,11.84v.76a1.48,1.48,0,0,1-1.48,1.48H88.58a0,0,0,0,1,0,0V110.09A0,0,0,0,1,88.58,110.09Z" transform="translate(229.31 4.95) rotate(90)"/><path class="cls-3" d="M296.4,58.29h30.13v96.24h-2.74q-5.94,0-17.71,1.09V154q7.57-1.92,10.41-7.76T319.23,127V64.68H295.94q-8.85,0-12.51,3.65t-6.11,13.79h-2.11c-.06-.79-.09-1.64-.09-2.56a36.71,36.71,0,0,1,.37-4.65,160.24,160.24,0,0,0,1.09-17.72,118.42,118.42,0,0,0,12.06.83Zm39.26,96.24h-2.37V58.29h32.87a143.46,143.46,0,0,0,17.8-1.1q0,1.74-.27,6.3-.27,4.2-.27,10.5a74.69,74.69,0,0,1-.46,8.13h-2.19A21.57,21.57,0,0,0,377,69.7q-3.64-5-15.43-5H340.87v65.38q0,11.24,3.19,16.89a14,14,0,0,0,9.86,7v1.64Q337.77,154.52,335.66,154.53Z"/><path class="cls-3" d="M408.16,66.87q-10.05,15.52-10,39.72,0,21.91,9.58,38-18.43-12.15-18.44-38.9Q389.26,78.2,408.16,66.87ZM485,106q0,16.8-5.11,28.4t-14.15,17a38.71,38.71,0,0,1-20.91,5.57q-19,0-29.41-13.6t-10.4-37.44q0-24.73,10.59-38,10.59-13.06,29-13.06,18.72,0,29.59,13.06T485,106Zm-8.58.09q0-43.73-31.78-43.73-31.12,0-31.13,44.83,0,42.18,31.5,42.18T476.46,106Zm5.3,39.08q9.94-13.5,9.95-40.72,0-24-9.86-37.44,18.81,11.24,18.81,38.45Q500.66,132.25,481.76,145.12Z"/><path class="cls-3" d="M531.34,58.29v96.24h-3q-5.84,0-17.35,1.09V154q4.75-.54,8.77-5.39t4-20.18V84q0-12.69-2.83-18t-10-7.12V57.19Q523.12,58.11,531.34,58.29Zm13.33,96.24H538V58.29c1.52,0,2.71,0,3.56-.09q5.21-.18,10.05-.64a62.91,62.91,0,0,1,7-.37q16.25,0,23.92,8.5t7.58,21.36q0,13.07-8.31,20.82-8.31,7.95-21.64,7.94a45.12,45.12,0,0,1-14.79-2.55v16.25q0,12,3.38,17.62,3.29,5.85,10.86,6.85v1.64q-3.84-.54-9.49-.82Zm.73-68v19.91a34.41,34.41,0,0,0,13.51,2.65q11.6,0,17.35-6.39A23.37,23.37,0,0,0,582,86.6q0-10-5.75-16.53t-18-6.58c-4.5,0-7.79.71-9.86,2.1S545.4,74,545.4,86.5ZM586.85,112a33.84,33.84,0,0,0,9.95-24.47,37.58,37.58,0,0,0-9.95-26q18.36,7.4,18.35,25.2Q605.2,104.12,586.85,112Z"/><path class="cls-3" d="M679.89,66.87q-10,15.52-10,39.72,0,21.91,9.59,38Q661,132.43,661,105.68,661,78.2,679.89,66.87ZM756.78,106q0,16.8-5.12,28.4t-14.15,17a38.71,38.71,0,0,1-20.91,5.57q-19,0-29.4-13.6t-10.41-37.44q0-24.73,10.59-38,10.59-13.06,29-13.06,18.72,0,29.58,13.06T756.78,106Zm-8.59.09q0-43.73-31.77-43.73-31.14,0-31.14,44.83,0,42.18,31.5,42.18T748.19,106Zm5.3,39.08q9.94-13.5,10-40.72,0-24-9.86-37.44,18.81,11.24,18.81,38.45Q772.39,132.25,753.49,145.12Z"/><path class="cls-3" d="M783.26,58.29l105.18,89.85v7.48h-1.82L803.89,85.23v42.45q0,13.89,3.56,19.27t11.23,7v1.64q-13.78-1.1-18.71-1.09-5.58,0-16.81,1.09V154q7.86-1.83,10.69-7.39t2.83-19.73l-.09-47.66L790,73.63q-13.69-11.68-23.1-14.79V57.19Zm105.18,80.9-94.87-80.9h10.78l76.79,65.38V85.77a63.93,63.93,0,0,0-1.28-14.61,15.59,15.59,0,0,0-5.2-8.12,21,21,0,0,0-10-4.2V57.19l3.2.28q12,.83,16.25.82,3.93,0,18.72-1.1v1.65a14.85,14.85,0,0,0-8.31,3.92,15.81,15.81,0,0,0-4.75,7.67,51.94,51.94,0,0,0-1.28,13.06Z"/><path class="cls-3" d="M930.26,58.29h3v96.24h-6q-3.19,0-13.51,1.09V154a13.09,13.09,0,0,0,7.48-4.66,19.19,19.19,0,0,0,3.56-7.94q1-4.74,1-20.09V83q0-13.23-3.56-18.17a14.33,14.33,0,0,0-8.49-6V57.19Zm46.11,96.24H939.85V58.29h26.57q7.49,0,28.31-1.1c-.13,1.83-.19,3.2-.19,4.11,0,1.22.16,4,.46,8.49.18,3,.27,4.6.27,4.84v2.29h-1.55q-3.29-7.86-7.49-10.14t-15.79-2.19H955.92a40.83,40.83,0,0,0-6.39.46q-1.65,3.11-1.92,14.79l-.18,6.21v14.88h19.72q11.15,0,14.79-1.92t5.85-9.13h2q-.74,8.22-.73,14.25,0,3.83.54,10c.12,1.22.28,3.62.46,7.21h-2c-.55-5.35-2.16-9-4.84-11s-7-3-12.87-3H947.43v19.91a139,139,0,0,0,1.28,20.18,58.85,58.85,0,0,0,8.21.54H970.8q11.33,0,17.08-2.55,6-2.66,11.87-11.78h1.82a88,88,0,0,1-3,9.68A105.5,105.5,0,0,0,995,155.62,179.87,179.87,0,0,0,976.37,154.53Z"/><path class="cls-3" d="M1076.45,58.29h30.13v96.24h-2.74q-5.94,0-17.71,1.09V154q7.57-1.92,10.41-7.76t2.74-19.18V64.68H1076q-8.85,0-12.51,3.65t-6.12,13.79h-2.1c-.06-.79-.09-1.64-.09-2.56a36.71,36.71,0,0,1,.37-4.65,160.24,160.24,0,0,0,1.09-17.72,118.42,118.42,0,0,0,12.06.83Zm39.26,96.24h-2.37V58.29h32.87a143.46,143.46,0,0,0,17.8-1.1q0,1.74-.27,6.3c-.18,2.8-.28,6.3-.28,10.5a74.66,74.66,0,0,1-.45,8.13h-2.19a21.64,21.64,0,0,0-3.75-12.42q-3.64-5-15.43-5h-20.72v65.38q0,11.24,3.19,16.89a14,14,0,0,0,9.86,7v1.64Q1117.82,154.52,1115.71,154.53Z"/><path class="cls-3" d="M1193.41,58.29v96.24h-3.92a72,72,0,0,0-7.22.55,78.35,78.35,0,0,1-9.86.54V154a13.57,13.57,0,0,0,9.68-5.75q3.84-5.11,3.84-19.72V81.57q0-19.9-13.52-22.73V57.19Q1178.26,57.83,1193.41,58.29Zm9.32,96.24h-2.65V58.29q5.48,0,11.69-.46,7.13-.63,11.59-.64,12.51,0,18.63,7.67t6.12,18.72q0,18.9-16,24.2a30.92,30.92,0,0,1,13.33,4.75q5.76,3.93,17.44,15.7,17.8,18.08,29,18.08a8.51,8.51,0,0,0,4.65-1.55l.37,1.64a12.08,12.08,0,0,1-10.14,4.75q-6.93,0-14.52-5.2-7.11-4.94-21.27-19.36-17-17.53-33-17.53,9.94,3.1,26.93,20.91,12,12.42,19.18,18.08t14,5.66v.82a18.31,18.31,0,0,1-6.12,1.09,26.34,26.34,0,0,1-15.34-4.47,86.21,86.21,0,0,1-8.81-7.53q-5.34-5.07-12.83-13.1-11-11.7-16.25-15.89a37.83,37.83,0,0,0-11-6v21.64q0,21.82,13.15,23.74v1.64Q1209.85,154.52,1202.73,154.53Zm4.93-71.13v19.81a47,47,0,0,0,11.69,1.37q20.54,0,20.54-21.36,0-20-20.36-20-6.57,0-10.23,2.65Q1207.67,69.51,1207.66,83.4ZM1249,103.12A38,38,0,0,0,1255,82.4q0-10.32-6.85-20.73,15.71,6.66,15.7,21Q1263.81,97.19,1249,103.12Z"/><path class="cls-3" d="M1378.1,132.43l-8.13-17h-34.42l-8.67,17-.46,1.19c-.06.06-.52.94-1.37,2.65a17.32,17.32,0,0,0-1.92,7.85q0,6.94,7.67,9.86v1.64a53.86,53.86,0,0,1-5.38-.45,82.28,82.28,0,0,0-9.68-.64,89.07,89.07,0,0,0-9.68.64c-2.62.3-4.35.45-5.21.45V154q10.05-5.11,18.27-21.09l30.31-59A26.17,26.17,0,0,0,1339.89,63a28.43,28.43,0,0,0-14.2-4.2V57.19h3.2q4.29,0,11.77.55,7.86.55,10.23.55L1397,154.53q-8.85.18-21.27,1.09V154q6.93-1.18,6.94-7.49Q1382.67,141.84,1378.1,132.43Zm-39-23.83h27.58l-13.24-27.76Zm65.2,45.93L1358.2,58.29h8.94q1.83,4.76,5.12,12,3.65,7.77,4.11,9.22a12.44,12.44,0,0,1,.82,1.92l21.46,44.47Q1409.87,149,1422.57,154v1.64Q1410.15,154.52,1404.31,154.53Z"/><path class="cls-3" d="M1450.6,58.29v96.24q-6.48,0-20.36,1.09V154a14.66,14.66,0,0,0,10-8.22q2.83-6,2.83-25V83q0-11.59-2.83-16.89t-10-7.3V57.19Q1442.11,58.11,1450.6,58.29Zm12.05,96.24h-5.57V58.29q12.6-.27,17.63-.64c5-.3,8.52-.46,10.4-.46q13.71,0,23.38,6.3a40.48,40.48,0,0,1,14.43,16.71q4.74,10.14,4.74,25.75,0,23.74-11.41,36.71t-31.14,13q-9.12,0-20.63-1A11.7,11.7,0,0,0,1462.65,154.53Zm3.47-87.75q-1.45,4.11-1.46,28.76v22.28q0,20,2.65,29.22a54,54,0,0,0,16.07,2.19q16.89,0,26.57-10.68t9.77-31.68q0-20.46-9.68-31.78t-28.49-11.32Q1471.79,63.77,1466.12,66.78Zm53.14,80.63q15.16-11.59,15.16-40.18,0-27.95-12.42-39.44a46,46,0,0,1,15.71,16.71A46.71,46.71,0,0,1,1543,107Q1543,133.26,1519.26,147.41Z"/><path class="cls-3" d="M1572.5,58.29h3v96.24h-6q-3.2,0-13.51,1.09V154a13.12,13.12,0,0,0,7.49-4.66,19.32,19.32,0,0,0,3.56-7.94q1-4.74,1-20.09V83q0-13.23-3.56-18.17a14.28,14.28,0,0,0-8.49-6V57.19Zm46.11,96.24h-36.53V58.29h26.58q7.48,0,28.3-1.1-.18,2.75-.18,4.11,0,1.83.45,8.49c.19,3,.28,4.6.28,4.84v2.29H1636q-3.29-7.86-7.49-10.14t-15.8-2.19h-14.52a40.83,40.83,0,0,0-6.39.46q-1.63,3.11-1.91,14.79l-.19,6.21v14.88h19.73q11.13,0,14.79-1.92t5.84-9.13h2q-.73,8.22-.73,14.25,0,3.83.55,10,.18,1.83.45,7.21h-2c-.55-5.35-2.17-9-4.84-11s-7-3-12.88-3h-22.92v19.91a140.44,140.44,0,0,0,1.28,20.18,59.1,59.1,0,0,0,8.22.54H1613q11.32,0,17.07-2.55,6-2.66,11.87-11.78h1.83a90.22,90.22,0,0,1-3,9.68,105.78,105.78,0,0,0-3.57,12.32A179.54,179.54,0,0,0,1618.61,154.53Z"/><path class="cls-3" d="M1675,58.29v96.24H1671a71.66,71.66,0,0,0-7.21.55,78.52,78.52,0,0,1-9.87.54V154a13.57,13.57,0,0,0,9.68-5.75q3.84-5.11,3.84-19.72V81.57q0-19.9-13.52-22.73V57.19Q1659.79,57.83,1675,58.29Zm9.31,96.24h-2.65V58.29q5.48,0,11.69-.46,7.13-.63,11.59-.64,12.51,0,18.63,7.67t6.12,18.72q0,18.9-16,24.2a30.87,30.87,0,0,1,13.33,4.75q5.76,3.93,17.44,15.7,17.8,18.08,29,18.08a8.51,8.51,0,0,0,4.65-1.55l.37,1.64a12.06,12.06,0,0,1-10.14,4.75q-6.93,0-14.51-5.2-7.12-4.94-21.28-19.36-17-17.53-33-17.53,9.95,3.1,26.93,20.91,12,12.42,19.18,18.08t14,5.66v.82a18.31,18.31,0,0,1-6.12,1.09,26.36,26.36,0,0,1-15.34-4.47,86.21,86.21,0,0,1-8.81-7.53q-5.34-5.07-12.83-13.1-11-11.7-16.25-15.89a37.83,37.83,0,0,0-11-6v21.64q0,21.82,13.15,23.74v1.64Q1691.38,154.52,1684.26,154.53Zm4.93-71.13v19.81a47,47,0,0,0,11.69,1.37q20.53,0,20.54-21.36,0-20-20.36-20-6.57,0-10.23,2.65Q1689.2,69.51,1689.19,83.4Zm41.36,19.72a38,38,0,0,0,5.94-20.72q0-10.32-6.85-20.73,15.7,6.66,15.7,21Q1745.34,97.19,1730.55,103.12Z"/><path class="cls-3" d="M1786.25,122.85h2.1a26.36,26.36,0,0,0,9.41,19.26,29.12,29.12,0,0,0,19.72,7.49q8.58,0,14-4.84a15.08,15.08,0,0,0,5.39-11.6q0-7.12-5.21-11-5-3.84-19.81-8.68a135.58,135.58,0,0,1-16.9-6.48,23.36,23.36,0,0,1-9.13-8.13,20.24,20.24,0,0,1-3.56-11.69A24.57,24.57,0,0,1,1787.07,73,21.55,21.55,0,0,0,1786,79.2a23,23,0,0,0,3.38,12.51,23.58,23.58,0,0,0,8.58,8.4q5.11,2.92,17.07,6.67,15.62,4.74,22.56,10.5,6.66,5.56,6.66,15,0,9.23-6.94,16.71t-21,7.58a82,82,0,0,1-15.7-2.1,79,79,0,0,0-13.15-1.92l-.64-.73q.09-1.54.09-4,0-2.93-.55-9c-.3-4.07-.45-7.12-.45-9.13A54.39,54.39,0,0,1,1786.25,122.85Zm64.46-38.17h-1.91q-.09-10.59-8.4-15.71-8.13-5-19.73-5-9.21,0-15.15,3.93t-6,9.4a10.7,10.7,0,0,0,4.75,9.22q4.93,3.66,19.45,8.68,13.51,4.65,18.9,7.58a27,27,0,0,1,9.59,9.13,25.14,25.14,0,0,1,3.83,13.6q0,11.42-8.4,17.9,3.11-4.29,3.1-12a24.86,24.86,0,0,0-3.37-13,28.75,28.75,0,0,0-8.77-9.13q-5.29-3.46-17.26-7.4-18-5.93-23.46-10.13t-5.48-13.33a19,19,0,0,1,8.4-16.35q8.4-5.74,23.83-5.75,10.5,0,25.66,3.65v.64l.18,3.47q0,2.74.18,6.58.29,4.65.28,8.21Q1850.9,81.22,1850.71,84.68Z"/><polygon points="519.64 226.72 519.48 227.8 536.3 227.8 535.28 235.36 518.48 235.36 518.36 236.17 515.09 258.98 506.51 258.98 513.87 207.18 539.09 207.18 538.05 214.81 521.44 214.81 521.31 215.62 519.64 226.72"/><path d="M579.16,221.16l-.68,4.76-.36,2.6-1.44-2.22a13.33,13.33,0,0,0-5-4.6,14.14,14.14,0,0,0-6.59-1.57A20.89,20.89,0,0,0,554.7,223a21.53,21.53,0,0,0-8,7.94,21.16,21.16,0,0,0-3,10.72,19.63,19.63,0,0,0,4.62,12.92c3.06,3.66,7.08,5.45,12.28,5.45a15.91,15.91,0,0,0,6.05-1.1A21.23,21.23,0,0,0,572.6,255l2-1.81-.38,2.62-.45,3.2h8.05l5.47-37.82Zm-4,24.91a13.77,13.77,0,0,1-5,5.4,13.93,13.93,0,0,1-7,1.74,10.75,10.75,0,0,1-11.21-11.32,14.42,14.42,0,0,1,4.05-10.54,13.42,13.42,0,0,1,9.91-4.13,11.12,11.12,0,0,1,8.21,3.16,11.31,11.31,0,0,1,3.11,8.25A15.31,15.31,0,0,1,575.17,246.07Z"/><path d="M618,242.92a10.46,10.46,0,0,1,1.69,5.73,11.13,11.13,0,0,1-3.51,7.71c-2.31,2.41-5.75,3.64-10.22,3.64a16.44,16.44,0,0,1-7.09-1.51,25.64,25.64,0,0,1-6.68-5.07l4.91-5.48c2.82,3.22,5.94,4.86,9.32,4.86a6.05,6.05,0,0,0,3.82-1.14,3.64,3.64,0,0,0,1.55-2.94,4.12,4.12,0,0,0-1.13-2.7,30.37,30.37,0,0,0-5.16-4,28.51,28.51,0,0,1-6.26-5.31,9.92,9.92,0,0,1-2.31-6.21,9,9,0,0,1,3.57-7.41,13.51,13.51,0,0,1,8.65-2.93,14.57,14.57,0,0,1,11.56,5.66l-3.7,5.72a13.66,13.66,0,0,0-3.34-3,8.37,8.37,0,0,0-4.36-1.41,4.67,4.67,0,0,0-2.93.94,3,3,0,0,0-1.33,2.38,3.55,3.55,0,0,0,1,2.34c.36.42,1.2,1.25,4.57,3.58C614.32,238.9,616.81,241.12,618,242.92Z"/><polygon points="648.73 221.16 647.79 227.66 641.41 227.66 641.29 228.48 636.98 258.98 628.86 258.98 633.16 228.74 633.32 227.66 628.34 227.66 629.26 221.16 634.23 221.16 634.35 220.33 636.33 206.4 644.41 206.4 642.48 220.08 642.32 221.16 648.73 221.16"/><path d="M704.09,240.71a14.67,14.67,0,0,1,1,5.34,13.11,13.11,0,0,1-4.47,10.16,16.55,16.55,0,0,1-11.58,4.11c-7,0-12.68-3-17.22-9.26l6.51-5.05c3.25,4.43,6.86,6.69,10.71,6.69a7.53,7.53,0,0,0,5.22-1.94,6.25,6.25,0,0,0,2.14-4.75,8.45,8.45,0,0,0-1.24-4.25c-.8-1.38-2.93-3.83-6.54-7.49a56.23,56.23,0,0,1-7.19-8.36,14.14,14.14,0,0,1-2.21-7.2,12.47,12.47,0,0,1,3.15-8.3c2.66-3.09,6.15-4.58,10.7-4.58,6.06,0,11.06,2.53,15.24,7.75l-6.17,5.26c-3.12-3.65-6-5.42-8.89-5.42a5.87,5.87,0,0,0-4,1.4,4.4,4.4,0,0,0-1.65,3.45A7,7,0,0,0,689,222.1a79.15,79.15,0,0,0,7.47,8.22,52.21,52.21,0,0,1,4.21,4.61A24.07,24.07,0,0,1,704.09,240.71Z"/><path d="M756.16,238.9a19.6,19.6,0,0,0-2.5-9.7,16.89,16.89,0,0,0-6.76-6.75,20.56,20.56,0,0,0-9.85-2.32,21.72,21.72,0,0,0-15.75,6.42,21.32,21.32,0,0,0-6.52,15.71c0,5.35,1.73,9.69,5.15,12.9s8.19,4.84,14.2,4.84a26,26,0,0,0,10.57-2.12,20.23,20.23,0,0,0,6.82-4.82l-7.26-3.63a16.32,16.32,0,0,1-10.21,3.48A11.5,11.5,0,0,1,726,250.2a10,10,0,0,1-3.13-7.25l0-1h33.08A21.13,21.13,0,0,0,756.16,238.9Zm-32.4-2.2.58-1.31a13,13,0,0,1,12.17-8,11.86,11.86,0,0,1,7,2.06,11.23,11.23,0,0,1,4.14,6l.39,1.22Z"/><path d="M785.85,220.4l-3,7.18a4.43,4.43,0,0,0-1.12-.18c-2.31,0-4.36,1.25-6.1,3.72s-2.91,6.85-3.84,13.75L769.9,259h-8.18l5.37-37.82h7l-.58,4.33-.59,4.42,2.41-3.81c2.54-4,5.45-6,8.91-6A5,5,0,0,1,785.85,220.4Z"/><polygon points="827.09 221.16 804.3 258.98 800.69 258.98 789.46 221.16 797.34 221.16 803.59 242.55 804.22 244.71 805.39 242.77 818.34 221.16 827.09 221.16"/><path d="M836.42,221.16,831.05,259h8.12l5.3-37.82Zm9.82-14.76a5.39,5.39,0,0,0-7.44,0,4.92,4.92,0,0,0,0,7.17,5.39,5.39,0,0,0,7.44,0,4.9,4.9,0,0,0,0-7.17Z"/><path d="M883.06,248.54l6.34,4.31a22.94,22.94,0,0,1-7.35,5A26.9,26.9,0,0,1,871.24,260c-6.14,0-11-1.64-14.52-4.85s-5.26-7.52-5.26-12.83a21.33,21.33,0,0,1,6.59-15.7c4.37-4.31,10.08-6.49,17-6.49,7.45,0,13,2.61,16.77,7.94l-6.92,3.64a13,13,0,0,0-10-4.2,16.43,16.43,0,0,0-7.79,1.81,13.86,13.86,0,0,0-5.46,5.26,14.14,14.14,0,0,0-2,7.25,10.51,10.51,0,0,0,3.31,8c2.17,2,5.17,3,8.9,3C876.54,252.91,880.34,251.44,883.06,248.54Z"/><path d="M942.57,238.9a19.6,19.6,0,0,0-2.5-9.7,16.89,16.89,0,0,0-6.76-6.75,20.6,20.6,0,0,0-9.86-2.32,21.73,21.73,0,0,0-15.74,6.42,21.33,21.33,0,0,0-6.53,15.71c0,5.35,1.73,9.69,5.16,12.9s8.2,4.84,14.19,4.84a25.88,25.88,0,0,0,10.57-2.12,20.31,20.31,0,0,0,6.84-4.82l-7.27-3.63a16.3,16.3,0,0,1-10.21,3.48,11.52,11.52,0,0,1-8.06-2.71,9.93,9.93,0,0,1-3.12-7.25l0-1h33.09A22.49,22.49,0,0,0,942.57,238.9Zm-32.4-2.2.58-1.31a13,13,0,0,1,12.17-8,11.81,11.81,0,0,1,7,2.06,11.2,11.2,0,0,1,4.15,6l.39,1.22Z"/><polygon points="988.29 207.18 980.75 258.98 972.67 258.98 980.03 207.18 988.29 207.18"/><path d="M1017.14,242.92a10.31,10.31,0,0,1,1.71,5.73,11.14,11.14,0,0,1-3.52,7.71c-2.31,2.41-5.75,3.64-10.22,3.64a16.52,16.52,0,0,1-7.1-1.51,25.59,25.59,0,0,1-6.66-5.07l4.89-5.48c2.82,3.22,6,4.86,9.32,4.86a6.06,6.06,0,0,0,3.83-1.14,3.65,3.65,0,0,0,1.56-2.94,4.17,4.17,0,0,0-1.13-2.7,31.28,31.28,0,0,0-5.16-4,29,29,0,0,1-6.28-5.31,10,10,0,0,1-2.3-6.21,9,9,0,0,1,3.57-7.41,13.47,13.47,0,0,1,8.65-2.93,14.61,14.61,0,0,1,11.56,5.66l-3.71,5.72a13.42,13.42,0,0,0-3.32-3,8.43,8.43,0,0,0-4.38-1.41,4.71,4.71,0,0,0-2.93.94,3,3,0,0,0-1.31,2.38,3.55,3.55,0,0,0,1,2.34c.34.42,1.19,1.25,4.57,3.58C1013.5,238.9,1016,241.12,1017.14,242.92Z"/><path d="M1101.09,212.67c-4.77-4.55-10.91-6.84-18.27-6.84-9.49,0-17.41,3.28-23.51,9.76a29.77,29.77,0,0,0-8.23,21c0,7.1,2.29,12.89,6.82,17.21s10.69,6.51,18.33,6.51a34,34,0,0,0,16.37-3.85,30.49,30.49,0,0,0,15.67-26.41A23.06,23.06,0,0,0,1101.09,212.67ZM1093,246.32a22.53,22.53,0,0,1-16.22,6.48c-5.54,0-9.86-1.66-12.84-4.92a17,17,0,0,1-4.46-11.83A23.35,23.35,0,0,1,1071,216.38a22.92,22.92,0,0,1,11.43-2.92c5.11,0,9.31,1.58,12.48,4.7s4.78,7.29,4.78,12.41A21.24,21.24,0,0,1,1093,246.32Z"/><path d="M1154.07,221.16l-2.81,20.28c-.66,4.67-1.78,8.31-3.32,10.83a15.46,15.46,0,0,1-6,5.73,18.75,18.75,0,0,1-8.91,2c-4.78,0-8.62-1.33-11.41-3.95a13.3,13.3,0,0,1-4.19-10.22,71.63,71.63,0,0,1,1-10.38l2.17-14.29h8l-2.73,19.22a39.86,39.86,0,0,0-.46,5.16,6.72,6.72,0,0,0,2.19,5.09,7.87,7.87,0,0,0,5.62,2.07,8.71,8.71,0,0,0,6.76-2.63c1.55-1.69,2.64-4.91,3.33-9.84l2.7-19.07Z"/><path d="M1183.48,220.4l-3,7.18a4.56,4.56,0,0,0-1.12-.18c-2.31,0-4.37,1.25-6.11,3.72s-2.91,6.85-3.83,13.75L1167.53,259h-8.18l5.37-37.82h7l-.58,4.33-.59,4.42,2.4-3.81c2.54-4,5.45-6,8.91-6A5,5,0,0,1,1183.48,220.4Z"/><path d="M1253,248.3l5,6.29a37.59,37.59,0,0,1-20.62,5.73,31.29,31.29,0,0,1-14.5-3.09,24,24,0,0,1-9.51-9.08,24.94,24.94,0,0,1-3.6-13,27.13,27.13,0,0,1,4.27-14.43,30.74,30.74,0,0,1,11.61-10.9,32.92,32.92,0,0,1,16-4,30.17,30.17,0,0,1,20.21,7.36l-6.12,5.46a17.72,17.72,0,0,0-5.69-3.75,21.21,21.21,0,0,0-8.13-1.55,24.43,24.43,0,0,0-11.67,3,22.75,22.75,0,0,0-8.68,8,19.56,19.56,0,0,0-3.12,10.59,16.77,16.77,0,0,0,5.54,12.81c3.65,3.38,8.4,5.09,14.1,5.09A25.5,25.5,0,0,0,1253,248.3Z"/><path d="M1308,229a16.48,16.48,0,0,0-6.62-6.57,19.66,19.66,0,0,0-9.51-2.32,22.62,22.62,0,0,0-15.85,6.34,20.94,20.94,0,0,0-6.79,15.93c0,5.24,1.66,9.53,5,12.76S1282,260,1287.55,260a22.87,22.87,0,0,0,16.3-6.24,20.14,20.14,0,0,0,6.58-15.12A19.52,19.52,0,0,0,1308,229Zm-9.22,19.31c-2.42,3-6,4.51-10.52,4.51A10.29,10.29,0,0,1,1277.39,242a15.92,15.92,0,0,1,3.5-9.86c2.4-3.09,5.87-4.66,10.32-4.66a11.16,11.16,0,0,1,8,3,10.4,10.4,0,0,1,3.13,7.78A15.62,15.62,0,0,1,1298.82,248.33Z"/><path d="M1382.22,231.21a41.27,41.27,0,0,1-.36,4.88L1378.57,259h-8.13l2.76-19.33a52.54,52.54,0,0,0,.57-5.61,6.68,6.68,0,0,0-1.74-4.93,6.59,6.59,0,0,0-4.84-1.75,10.44,10.44,0,0,0-5.79,1.94,12.54,12.54,0,0,0-4.38,5.1c-1,2.07-1.77,5.46-2.42,10.37l-2,14.21h-8.12l2.92-20.54a34.46,34.46,0,0,0,.38-4.63,6.38,6.38,0,0,0-1.85-4.79,6.65,6.65,0,0,0-4.81-1.8,10.42,10.42,0,0,0-5.55,1.78,12.09,12.09,0,0,0-4.35,4.8,28.83,28.83,0,0,0-2.32,8.86L1326.68,259h-8.12l5.38-37.82h8.15l-.46,3.26-.41,2.82,2.08-2a16.36,16.36,0,0,1,11.62-5.09,13.65,13.65,0,0,1,4.82.85,10.37,10.37,0,0,1,3.57,2.12,10.75,10.75,0,0,1,2.34,3.64l.64,1.53,1-1.3a18,18,0,0,1,6.33-5.1,17.32,17.32,0,0,1,7.52-1.74,10.8,10.8,0,0,1,7.91,3.06A10.67,10.67,0,0,1,1382.22,231.21Z"/><path d="M1455.24,231.21a39.79,39.79,0,0,1-.38,4.88L1451.58,259h-8.12l2.74-19.33a50.78,50.78,0,0,0,.58-5.61,6.72,6.72,0,0,0-1.74-4.93,6.59,6.59,0,0,0-4.84-1.75,10.5,10.5,0,0,0-5.8,1.94,12.42,12.42,0,0,0-4.36,5.1c-1,2.07-1.77,5.46-2.42,10.37l-2,14.21h-8.12l2.91-20.54a33.07,33.07,0,0,0,.39-4.63,6.41,6.41,0,0,0-1.84-4.79,6.69,6.69,0,0,0-4.82-1.8,10.42,10.42,0,0,0-5.55,1.78,11.92,11.92,0,0,0-4.34,4.8,28.79,28.79,0,0,0-2.33,8.86L1399.68,259h-8.11l5.37-37.82h8.16l-.47,3.26-.4,2.82,2.08-2a16.36,16.36,0,0,1,11.62-5.09,13.51,13.51,0,0,1,4.81.85,10.33,10.33,0,0,1,3.58,2.12,10.59,10.59,0,0,1,2.33,3.64l.64,1.53,1-1.3a18.2,18.2,0,0,1,6.33-5.1,17.37,17.37,0,0,1,7.53-1.74,10.62,10.62,0,0,1,11,11.08Z"/><path d="M1468.59,221.16,1463.22,259h8.11l5.3-37.82Zm9.81-14.76a5.39,5.39,0,0,0-7.44,0,4.9,4.9,0,0,0,0,7.17,5.39,5.39,0,0,0,7.44,0,4.92,4.92,0,0,0,0-7.17Z"/><polygon points="1503 221.16 1502.06 227.66 1495.68 227.66 1495.56 228.48 1491.25 258.98 1483.13 258.98 1487.43 228.74 1487.57 227.66 1482.61 227.66 1483.51 221.16 1488.5 221.16 1488.62 220.33 1490.59 206.4 1498.67 206.4 1496.74 220.08 1496.59 221.16 1503 221.16"/><path d="M1570.15,231.21a39.51,39.51,0,0,1-.37,4.88L1566.5,259h-8.12l2.74-19.33a50.78,50.78,0,0,0,.58-5.61,6.72,6.72,0,0,0-1.74-4.93,6.59,6.59,0,0,0-4.84-1.75,10.47,10.47,0,0,0-5.8,1.94,12.52,12.52,0,0,0-4.37,5.1c-1,2.07-1.76,5.46-2.41,10.37l-2,14.21h-8.12l2.91-20.54a33.07,33.07,0,0,0,.39-4.63,6.42,6.42,0,0,0-1.85-4.79,6.65,6.65,0,0,0-4.81-1.8,10.42,10.42,0,0,0-5.55,1.78,11.92,11.92,0,0,0-4.34,4.8,28.79,28.79,0,0,0-2.33,8.86L1514.6,259h-8.11l5.37-37.82H1520l-.47,3.26-.4,2.82,2.08-2a16.34,16.34,0,0,1,11.62-5.09,13.55,13.55,0,0,1,4.81.85,9.17,9.17,0,0,1,5.91,5.76l.64,1.53,1-1.3a18.2,18.2,0,0,1,6.33-5.1,17.37,17.37,0,0,1,7.53-1.74,10.76,10.76,0,0,1,7.9,3.06A10.64,10.64,0,0,1,1570.15,231.21Z"/><path d="M1621.31,238.9a19.6,19.6,0,0,0-2.5-9.7,17,17,0,0,0-6.76-6.75,20.57,20.57,0,0,0-9.86-2.32,21.67,21.67,0,0,0-15.73,6.42,21.26,21.26,0,0,0-6.53,15.71c0,5.35,1.73,9.69,5.14,12.9s8.2,4.84,14.2,4.84a25.91,25.91,0,0,0,10.57-2.12,20.37,20.37,0,0,0,6.83-4.82l-7.26-3.63a16.3,16.3,0,0,1-10.21,3.48,11.52,11.52,0,0,1-8.06-2.71A9.94,9.94,0,0,1,1588,243l0-1h33.1A24.22,24.22,0,0,0,1621.31,238.9Zm-32.4-2.2.58-1.31a13,13,0,0,1,12.17-8,11.88,11.88,0,0,1,7,2.06,11.3,11.3,0,0,1,4.15,6l.37,1.22Z"/><path d="M1666.55,230.69a55.55,55.55,0,0,1-.64,6.86l-3,21.43h-8.12l2.93-20.65a40,40,0,0,0,.46-5.17,5.63,5.63,0,0,0-1.74-4.39,6.78,6.78,0,0,0-4.72-1.55,10.18,10.18,0,0,0-5.66,1.87,11.88,11.88,0,0,0-4.27,5.11c-1,2.1-1.8,5.88-2.58,11.54L1637.34,259h-8.11l5.36-37.82h8.13l-.43,3-.36,2.56,2-1.73c3.66-3.19,7.51-4.81,11.41-4.81a11.14,11.14,0,0,1,8.08,3A10,10,0,0,1,1666.55,230.69Z"/><polygon points="1695.62 221.16 1694.69 227.66 1688.3 227.66 1688.19 228.48 1683.88 258.98 1675.76 258.98 1680.05 228.74 1680.21 227.66 1675.23 227.66 1676.15 221.16 1681.13 221.16 1681.25 220.33 1683.22 206.4 1691.31 206.4 1689.37 220.08 1689.22 221.16 1695.62 221.16"/></g></g></svg>